<svg id="Capa_1" data-name="Capa 1" xmlns="http://www.w3.org/2000/svg" xmlns:xlink="http://www.w3.org/1999/xlink" viewBox="0 0 72 72"><defs><style>.cls-1{fill:#fff;}.cls-2{fill:url(#Degradado_sin_nombre_29);}.cls-3{fill:url(#Degradado_sin_nombre_29-2);}</style><linearGradient id="Degradado_sin_nombre_29" x1="246.5" y1="324" x2="293.5" y2="324" gradientUnits="userSpaceOnUse"><stop offset="0.01" stop-color="#51bec7"/><stop offset="1" stop-color="#6c6eb2"/></linearGradient><linearGradient id="Degradado_sin_nombre_29-2" x1="266.39" y1="316.53" x2="287.32" y2="316.53" xlink:href="#Degradado_sin_nombre_29"/></defs><circle class="cls-1" cx="36" cy="36" r="36"/><path class="cls-2" d="M288.62,305.38A16.64,16.64,0,0,0,264,327.65l-2.47,2.46-1.92-1.92L247.79,340a4.41,4.41,0,0,0,6.24,6.24l11.78-11.77-1.93-1.92,2.47-2.47a16.64,16.64,0,0,0,22.27-24.67ZM286.71,327A13.94,13.94,0,0,1,264,311.81a14.11,14.11,0,0,1,3-4.52A13.94,13.94,0,0,1,286.71,327Z" transform="translate(-234 -288)"/><path class="cls-3" d="M286.38,320.2h-.86a1,1,0,0,1-.93-.81,5.81,5.81,0,0,0-2.8-3.81,5,5,0,1,1-9.87,0,5.81,5.81,0,0,0-2.8,3.81,1,1,0,0,1-.93.81h-.86a.93.93,0,0,1-.93-1c.63-4.31,5.08-7.65,10.45-7.65s9.83,3.34,10.46,7.65A.93.93,0,0,1,286.38,320.2Z" transform="translate(-234 -288)"/></svg>